<?xml version="1.0" encoding="UTF-8" standalone="no"?>
<!-- Created with Inkscape (http://www.inkscape.org/) -->

<svg
   xmlns:dc="http://purl.org/dc/elements/1.1/"
   xmlns:cc="http://creativecommons.org/ns#"
   xmlns:rdf="http://www.w3.org/1999/02/22-rdf-syntax-ns#"
   xmlns:svg="http://www.w3.org/2000/svg"
   xmlns="http://www.w3.org/2000/svg"
   xmlns:sodipodi="http://sodipodi.sourceforge.net/DTD/sodipodi-0.dtd"
   xmlns:inkscape="http://www.inkscape.org/namespaces/inkscape"
   width="210mm"
   height="297mm"
   viewBox="0 0 744.09448819 1052.3622047"
   id="svg2"
   version="1.1"
   inkscape:version="0.91 r13725"
   sodipodi:docname="arrow_plain.svg"
   inkscape:export-filename="D:\Dropbox\Projektit\Android\HelsinkiPäätökset\Documentation\arrow_left.png"
   inkscape:export-xdpi="45.448761"
   inkscape:export-ydpi="45.448761">
  <defs
     id="defs4" />
  <sodipodi:namedview
     id="base"
     pagecolor="#ffffff"
     bordercolor="#666666"
     borderopacity="1.0"
     inkscape:pageopacity="0.0"
     inkscape:pageshadow="2"
     inkscape:zoom="1.4"
     inkscape:cx="407.28551"
     inkscape:cy="644.03877"
     inkscape:document-units="px"
     inkscape:current-layer="layer1"
     showgrid="false"
     inkscape:window-width="1920"
     inkscape:window-height="1017"
     inkscape:window-x="-8"
     inkscape:window-y="-8"
     inkscape:window-maximized="1" />
  <metadata
     id="metadata7">
    <rdf:RDF>
      <cc:Work
         rdf:about="">
        <dc:format>image/svg+xml</dc:format>
        <dc:type
           rdf:resource="http://purl.org/dc/dcmitype/StillImage" />
        <dc:title></dc:title>
      </cc:Work>
    </rdf:RDF>
  </metadata>
  <g
     inkscape:label="Layer 1"
     inkscape:groupmode="layer"
     id="layer1">
    <path
       style="fill:#000000;stroke:#000000;stroke-opacity:1"
       d="m 310.55573,443.9601 c 2.76327,-2.17359 2.81806,-2.40364 2.18773,-9.18574 -0.87458,-9.41014 -5.76273,-23.6838 -11.58514,-33.82926 -2.64149,-4.60274 -4.73987,-8.41908 -4.66306,-8.48075 0.0768,-0.0617 32.08966,-0.39631 71.13966,-0.74367 190.97886,-1.69879 197.89207,-1.81219 200.25,-3.28496 2.09799,-1.31041 2.25,-2.10492 2.25,-11.75986 0,-7.65595 -0.36491,-10.65735 -1.40017,-11.51654 -0.94993,-0.78837 -12.44594,-1.47331 -35.75,-2.13001 -18.89241,-0.53238 -47.84983,-1.40888 -64.34983,-1.94777 -16.5,-0.53889 -61.43169,-0.98549 -99.8482,-0.99244 l -69.8482,-0.0126 2.17412,-3.25 c 6.40748,-9.57825 11.20222,-24.11912 11.40163,-34.57743 0.11343,-5.94871 -0.0748,-6.50235 -3.14513,-9.25 -1.79617,-1.60741 -4.18102,-2.92257 -5.29966,-2.92257 -2.93223,0 -6.9845,2.34056 -10.43456,6.02692 -3.0882,3.29972 -27.7288,20.19157 -37.5,25.70735 -12.63113,7.1302 -42.90966,18.63541 -64.06823,24.34461 -9.05678,2.44378 -13.26435,5.3688 -14.91427,10.36809 -0.88244,2.67382 -0.8067,4.12178 0.36188,6.91859 1.29651,3.10299 2.19232,3.73538 7.29925,5.15293 44.25919,12.28511 66.28571,22.19558 102.36934,46.05939 8.55138,5.65543 16.67086,10.56443 18.04328,10.90889 1.75546,0.44059 3.33566,-0.0347 5.32956,-1.60314 z m -31.42081,-32.05634 c -17.32748,-11.92545 -43.65922,-26.5844 -56.25,-31.31452 -2.6125,-0.98147 -4.75,-2.0629 -4.75,-2.40318 0,-0.34029 5.2875,-2.57608 11.75,-4.96842 18.50237,-6.84937 32.6019,-14.01361 48,-24.38973 7.8375,-5.28135 14.25,-9.39815 14.25,-9.14843 0,1.61846 -6.45936,12.75758 -9.52713,16.42947 -6.00242,7.18442 -6.6062,10.7269 -2.46681,14.473 1.83193,1.65788 5.87469,1.75451 64.22447,1.53512 34.24821,-0.12877 65.86947,-0.37043 70.26947,-0.53702 4.4,-0.16658 39.3875,-0.61615 77.75,-0.99904 l 69.75,-0.69616 0,7.23075 0,7.23074 -26.25,-0.65678 c -14.4375,-0.36123 -40.425,-1.19355 -57.75,-1.8496 -17.325,-0.65606 -68.46445,-1.20873 -113.64322,-1.22816 -79.40031,-0.0342 -82.21357,0.0283 -84.25,1.86966 -1.15873,1.04774 -2.10678,3.02092 -2.10678,4.38484 0,1.36392 2.89524,7.48168 6.43387,13.59501 5.47436,9.45751 10.56613,20.18974 10.56613,22.27087 0,0.31992 -1.4625,-0.51449 -3.25,-1.85424 -1.7875,-1.33975 -7.525,-5.37813 -12.75,-8.97418 z"
       id="path4147"
       inkscape:connector-curvature="0" />
  </g>
</svg>
