<?xml version="1.0" encoding="UTF-8" standalone="no"?>
<svg
   xmlns:dc="http://purl.org/dc/elements/1.1/"
   xmlns:cc="http://creativecommons.org/ns#"
   xmlns:rdf="http://www.w3.org/1999/02/22-rdf-syntax-ns#"
   xmlns:svg="http://www.w3.org/2000/svg"
   xmlns="http://www.w3.org/2000/svg"
   xmlns:sodipodi="http://sodipodi.sourceforge.net/DTD/sodipodi-0.dtd"
   xmlns:inkscape="http://www.inkscape.org/namespaces/inkscape"
   fill="#000000"
   height="24"
   viewBox="0 0 24 24"
   width="24"
   id="svg2"
   version="1.1"
   inkscape:version="0.48.4 r9939"
   sodipodi:docname="play_back.svg"
   inkscape:export-filename="F:\Dropbox\Projektit\Android\HelsinkiPäätökset\Documentation\play_back.png"
   inkscape:export-xdpi="966"
   inkscape:export-ydpi="966">
  <metadata
     id="metadata12">
    <rdf:RDF>
      <cc:Work
         rdf:about="">
        <dc:format>image/svg+xml</dc:format>
        <dc:type
           rdf:resource="http://purl.org/dc/dcmitype/StillImage" />
        <dc:title />
      </cc:Work>
    </rdf:RDF>
  </metadata>
  <defs
     id="defs10" />
  <sodipodi:namedview
     pagecolor="#ffffff"
     bordercolor="#666666"
     borderopacity="1"
     objecttolerance="10"
     gridtolerance="10"
     guidetolerance="10"
     inkscape:pageopacity="0"
     inkscape:pageshadow="2"
     inkscape:window-width="1920"
     inkscape:window-height="1017"
     id="namedview8"
     showgrid="false"
     inkscape:zoom="9.8333333"
     inkscape:cx="-19.728814"
     inkscape:cy="12"
     inkscape:window-x="-8"
     inkscape:window-y="-8"
     inkscape:window-maximized="1"
     inkscape:current-layer="svg2" />
  <path
     d="M0 0h24v24H0z"
     fill="none"
     id="path4" />
  <path
     d="m 10.101695,16.5 6,-4.5 -6,-4.5000001 V 16.5 z m 2,-14.5000001 c -5.5200001,0 -10.0000002,4.48 -10.0000002,10.0000001 0,5.52 4.4800001,10 10.0000002,10 5.52,0 10,-4.48 10,-10 0,-5.5200001 -4.48,-10.0000001 -10,-10.0000001 z m 0,18.0000001 c -4.4100001,0 -8.0000001,-3.59 -8.0000001,-8 0,-4.4100001 3.59,-8.0000001 8.0000001,-8.0000001 4.41,0 8,3.59 8,8.0000001 0,4.41 -3.59,8 -8,8 z"
     id="path6"
     inkscape:connector-curvature="0"
     style="opacity:0.83185841;fill:#ffffff;fill-opacity:1" />
</svg>
