<?xml version="1.0" encoding="UTF-8" standalone="no"?>
<!-- Generator: Adobe Illustrator 16.2.1, SVG Export Plug-In . SVG Version: 6.00 Build 0)  -->

<svg
   xmlns:dc="http://purl.org/dc/elements/1.1/"
   xmlns:cc="http://creativecommons.org/ns#"
   xmlns:rdf="http://www.w3.org/1999/02/22-rdf-syntax-ns#"
   xmlns:svg="http://www.w3.org/2000/svg"
   xmlns="http://www.w3.org/2000/svg"
   xmlns:sodipodi="http://sodipodi.sourceforge.net/DTD/sodipodi-0.dtd"
   xmlns:inkscape="http://www.inkscape.org/namespaces/inkscape"
   version="1.1"
   id="Layer_1"
   x="0px"
   y="0px"
   width="512px"
   height="512px"
   viewBox="0 0 512 512"
   style="enable-background:new 0 0 512 512;"
   xml:space="preserve"
   inkscape:version="0.48.4 r9939"
   sodipodi:docname="twitter.svg"
   inkscape:export-filename="F:\Dropbox\Projektit\Android\AhjoExplorer\Documentation\twitter.png"
   inkscape:export-xdpi="26.367188"
   inkscape:export-ydpi="26.367188"><metadata
   id="metadata9"><rdf:RDF><cc:Work
       rdf:about=""><dc:format>image/svg+xml</dc:format><dc:type
         rdf:resource="http://purl.org/dc/dcmitype/StillImage" /></cc:Work></rdf:RDF></metadata><defs
   id="defs7" /><sodipodi:namedview
   pagecolor="#ffffff"
   bordercolor="#666666"
   borderopacity="1"
   objecttolerance="10"
   gridtolerance="10"
   guidetolerance="10"
   inkscape:pageopacity="0"
   inkscape:pageshadow="2"
   inkscape:window-width="1920"
   inkscape:window-height="1017"
   id="namedview5"
   showgrid="false"
   inkscape:zoom="0.921875"
   inkscape:cx="274.72165"
   inkscape:cy="284.41955"
   inkscape:window-x="1912"
   inkscape:window-y="-8"
   inkscape:window-maximized="1"
   inkscape:current-layer="Layer_1" />
<path
   d="m 488.13772,108.10689 c -17.4,7.7 -36,12.9 -55.6,15.3 20,-12 35.4,-31 42.6,-53.599997 -18.7,11.1 -39.4,19.2 -61.5,23.499997 -17.7,-18.899997 -42.9,-30.699997 -70.7,-30.699997 -53.5,0 -96.8,43.399997 -96.8,96.900007 0,7.6 0.8,15 2.5,22.1 -80.5,-4 -151.899999,-42.6 -199.599999,-101.300007 -8.3,14.299997 -13.1,30.999997 -13.1,48.699997 0,33.60001 17.2,63.30001 43.2,80.70001 -16,-0.4 -31,-4.8 -44,-12.1 0,0.4 0,0.8 0,1.2 0,47 33.4,86.1 77.699999,95 -8.1,2.2 -16.699999,3.4 -25.499999,3.4 -6.2,0 -12.3,-0.6 -18.2,-1.8 12.3,38.5 48.099999,66.5 90.499999,67.3 -33.1,26 -74.899999,41.5 -120.299999,41.5 -7.8,0 -15.5,-0.5 -23.1,-1.4 42.7,27.8 93.599999,43.8 148.199999,43.8 178.3,0 275.7,-147.7 275.7,-275.8 0,-4.2 -0.1,-8.4 -0.3,-12.5 18.9,-13.7 35.3,-30.70001 48.3,-50.20001 z"
   id="path3"
   style="fill:#a9a7a9;fill-opacity:1;stroke:none"
   inkscape:connector-curvature="0" />
</svg>